<?xml version="1.0" standalone="no"?>
<!DOCTYPE svg PUBLIC "-//W3C//DTD SVG 20010904//EN"
 "http://www.w3.org/TR/2001/REC-SVG-20010904/DTD/svg10.dtd">
<svg version="1.0" xmlns="http://www.w3.org/2000/svg"
 width="1280.000000pt" height="1280.000000pt" viewBox="0 0 1280.000000 1280.000000"
 preserveAspectRatio="xMidYMid meet">
<metadata>
Created by potrace 1.11, written by Peter Selinger 2001-2013
</metadata>
<g transform="translate(0.000000,1280.000000) scale(0.100000,-0.100000)"
fill="#000000" stroke="none">
<path d="M6335 10289 c-69 -6 -120 -22 -187 -56 -27 -13 -48 -20 -48 -16 0 4
-7 -2 -15 -13 -8 -10 -15 -16 -15 -11 0 16 -170 -145 -170 -162 0 -5 -3 -11
-7 -13 -15 -6 -83 -154 -94 -203 -15 -69 -11 -243 7 -304 8 -27 30 -78 49
-111 19 -34 35 -65 35 -70 0 -4 29 -37 64 -73 72 -74 189 -147 277 -173 l59
-18 0 -58 0 -58 -1513 -2 -1513 -3 -37 -25 c-20 -13 -34 -26 -32 -29 2 -2 0
-12 -6 -22 -6 -12 -9 -240 -9 -619 l0 -600 -143 0 c-117 0 -147 -3 -166 -17
-18 -12 -22 -13 -16 -2 4 8 -1 5 -12 -6 -11 -11 -19 -23 -17 -27 3 -4 0 -9 -6
-13 -15 -9 -14 -1396 2 -1429 6 -14 19 -28 30 -31 10 -4 18 -10 18 -15 0 -4 6
-8 13 -7 6 0 76 -1 154 -1 l143 -2 1 -1747 c0 -962 1 -1755 2 -1763 1 -23 64
-77 98 -84 53 -10 6211 -7 6248 4 33 9 84 54 73 64 -3 3 0 6 6 6 9 0 12 435
12 1757 0 966 1 1758 3 1759 1 2 71 4 155 5 83 1 152 5 152 9 0 4 12 12 26 18
14 7 22 17 19 22 -3 6 -2 10 4 10 7 0 11 226 11 703 0 643 -1 704 -17 726 -12
18 -13 22 -2 16 8 -5 5 1 -5 13 -21 24 -32 29 -20 10 4 -6 -3 -4 -17 5 -19 14
-49 17 -166 17 l-143 0 -3 613 c-2 336 -6 618 -7 625 -2 7 -17 23 -34 35 l-31
22 -1517 3 -1518 2 0 58 0 58 58 18 c99 31 194 88 262 157 67 70 74 80 119
170 86 175 92 345 16 502 -13 28 -21 55 -18 60 3 6 2 7 -4 4 -5 -3 -20 12 -32
33 -27 49 -156 180 -176 180 -8 0 -19 8 -24 18 -6 9 -11 13 -11 8 0 -4 -10 -2
-22 6 -77 50 -225 79 -343 67z"/>
</g>
</svg>
